<?xml version="1.0" standalone="no"?>
<!DOCTYPE svg PUBLIC "-//W3C//DTD SVG 20010904//EN"
 "http://www.w3.org/TR/2001/REC-SVG-20010904/DTD/svg10.dtd">
<svg version="1.0" xmlns="http://www.w3.org/2000/svg"
 width="621.000000pt" height="621.000000pt" viewBox="0 0 621.000000 621.000000"
 preserveAspectRatio="xMidYMid meet">
<metadata>
Created by potrace 1.14, written by Peter Selinger 2001-2017
</metadata>
<g transform="translate(0.000000,621.000000) scale(0.100000,-0.100000)"
fill="#000000" stroke="none">
<path d="M0 3105 l0 -3105 3105 0 3105 0 0 3105 0 3105 -3105 0 -3105 0 0
-3105z m4836 2545 c95 -24 171 -60 210 -99 78 -76 144 -152 168 -193 33 -57
66 -173 66 -232 0 -66 -32 -157 -83 -233 -61 -92 -244 -288 -323 -346 -180
-130 -204 -151 -204 -168 0 -10 2 -19 5 -19 3 0 38 22 78 49 87 59 124 77 247
124 251 95 699 202 756 180 18 -7 47 -188 60 -378 2 -33 9 -120 15 -193 11
-132 11 -133 -11 -157 -13 -14 -37 -27 -54 -29 -17 -2 -65 -9 -106 -15 -117
-16 -303 -86 -435 -164 -103 -62 -229 -167 -313 -262 l-41 -47 29 -61 c38 -81
90 -259 90 -308 0 -22 4 -39 9 -39 16 0 366 181 436 226 171 108 421 212 469
194 26 -10 32 -23 135 -340 96 -296 105 -326 98 -343 -3 -8 -47 -41 -99 -72
-51 -32 -121 -80 -157 -107 -35 -27 -94 -64 -132 -83 -37 -19 -142 -83 -233
-142 -90 -60 -194 -126 -231 -148 -36 -22 -72 -46 -80 -53 -17 -15 -15 -62 11
-269 13 -111 14 -151 5 -240 -7 -60 -16 -175 -21 -258 -11 -179 -26 -335 -43
-430 l-12 -70 -295 -3 c-162 -2 -319 0 -347 3 l-53 6 0 48 c0 54 15 144 35
211 26 86 39 316 27 462 -12 139 -51 315 -74 329 -7 5 -43 9 -80 9 -78 0 -277
38 -433 82 -126 35 -316 70 -328 59 -10 -10 -24 -140 -33 -296 -8 -152 -25
-209 -87 -285 -87 -107 -201 -132 -581 -128 l-228 3 -17 -67 c-25 -100 -83
-173 -173 -219 -34 -17 -54 -20 -136 -17 -54 2 -126 12 -162 21 -136 36 -473
109 -645 141 -595 112 -1059 216 -1163 262 -53 23 -109 73 -147 130 -34 51
-95 215 -116 310 -32 151 -32 157 -21 574 7 228 15 609 18 845 7 554 14 645
53 755 35 99 96 215 146 276 40 49 145 126 201 148 48 19 332 91 394 100 77
11 591 125 705 156 39 10 124 30 191 44 146 30 332 79 359 94 43 22 279 64
329 57 95 -12 162 -66 207 -164 l23 -49 105 -8 c58 -3 164 -4 236 0 173 8 343
-6 401 -35 56 -26 67 -44 90 -141 l19 -76 95 51 c52 27 120 63 150 79 124 65
175 103 172 126 -2 12 3 57 12 100 8 42 17 101 21 130 8 75 77 281 111 333 84
128 176 210 269 239 61 20 234 48 301 49 33 1 96 -8 140 -19z"/>
<path d="M4605 5573 c-107 -10 -218 -35 -253 -57 -47 -30 -141 -130 -174 -187
-14 -24 -31 -64 -38 -89 -6 -25 -21 -72 -31 -105 -11 -33 -24 -96 -29 -140 -5
-44 -12 -97 -16 -117 -4 -23 -3 -38 3 -38 14 0 211 108 248 136 29 21 84 49
186 92 26 11 72 36 102 55 47 31 57 42 63 74 4 21 13 52 21 70 17 41 16 44 -3
36 -12 -4 -15 -2 -12 8 3 8 15 13 28 11 23 -2 60 35 71 72 4 16 12 20 32 18
24 -2 27 1 27 28 0 48 -26 98 -62 120 -32 20 -63 22 -163 13z m100 -22 c3 -5
1 -12 -5 -16 -6 -3 -1 -27 11 -61 12 -31 19 -57 17 -58 -1 -2 -22 -14 -45 -27
-46 -27 -111 -97 -137 -146 -9 -18 -16 -49 -16 -70 0 -81 -53 -106 -214 -101
-126 4 -129 7 -87 112 38 95 106 192 163 232 76 55 161 94 203 95 22 0 49 4
59 8 19 7 19 8 -2 13 -12 4 -22 11 -22 17 0 13 66 15 75 2z m-212 -26 c1 -5
-10 -11 -25 -13 -16 -2 -28 1 -28 7 0 20 49 26 53 6z m-145 -67 c-6 -16 -56
-53 -63 -46 -9 8 35 58 52 58 8 0 13 -5 11 -12z m-139 -177 c-6 -16 -17 -32
-26 -35 -12 -5 -14 -1 -8 21 3 15 11 33 17 40 17 21 27 4 17 -26z m441 -65 c0
-16 -18 -31 -27 -22 -8 8 5 36 17 36 5 0 10 -6 10 -14z m-499 -112 c-9 -20
-15 -24 -23 -16 -9 9 -8 18 1 38 9 20 15 24 23 16 9 -9 8 -18 -1 -38z m-31
-147 c0 -22 -16 -47 -31 -47 -6 0 -4 24 7 58 6 21 24 13 24 -11z"/>
<path d="M4883 5510 c4 -18 7 -38 7 -45 0 -6 10 -11 23 -11 13 1 22 -5 22 -14
0 -8 -7 -14 -15 -13 -12 2 -15 -9 -14 -54 0 -34 5 -58 12 -61 15 -5 -3 -42
-20 -42 -6 0 -26 -17 -43 -38 -37 -43 -258 -180 -389 -241 -49 -23 -103 -52
-120 -64 -17 -13 -85 -52 -151 -86 -66 -35 -127 -68 -135 -75 -19 -16 -193
-120 -290 -175 -41 -23 -82 -46 -90 -51 -40 -25 -417 -198 -552 -254 -48 -20
-102 -45 -120 -55 -18 -11 -73 -33 -123 -49 -49 -17 -105 -36 -122 -43 -36
-15 -34 -4 -38 -189 -1 -36 -5 -112 -10 -170 -9 -126 0 -239 21 -247 8 -3 101
37 207 89 105 52 205 98 222 102 16 4 95 39 175 78 80 38 207 94 284 124 141
56 222 93 266 124 14 9 86 48 160 86 74 37 155 80 180 94 152 89 196 116 205
125 13 15 61 49 165 120 271 184 476 380 547 522 34 68 35 77 30 145 -5 77
-40 173 -58 162 -7 -4 -8 -33 -4 -78 7 -68 5 -76 -23 -132 -41 -80 -183 -230
-205 -217 -17 9 -117 156 -117 171 0 5 23 35 51 67 82 94 102 130 124 229 6
28 8 28 56 24 27 -3 58 -13 68 -22 14 -13 21 -14 26 -6 5 7 -16 37 -51 73 -71
74 -79 80 -128 108 l-39 22 6 -33z m-33 -328 c0 -13 -39 -46 -46 -39 -9 9 16
47 31 47 8 0 15 -4 15 -8z m310 -21 c0 -10 -7 -24 -15 -31 -13 -11 -15 -8 -15
19 0 21 5 31 15 31 8 0 15 -8 15 -19z m-456 -116 c-6 -15 -42 -30 -51 -21 -10
9 18 36 38 36 12 0 16 -5 13 -15z m406 -33 c0 -5 -9 -17 -20 -27 -19 -18 -20
-17 -20 2 0 11 3 23 7 26 9 10 33 9 33 -1z m-560 -42 c0 -10 -52 -40 -70 -40
-18 0 -11 15 18 32 30 20 52 23 52 8z m126 -18 c7 -4 35 -50 63 -103 57 -107
58 -102 -19 -160 -25 -18 -47 -36 -50 -39 -5 -6 -99 -69 -145 -97 -189 -115
-206 -123 -232 -107 -8 5 -35 48 -60 95 -34 63 -44 92 -40 110 5 19 54 57 194
150 254 168 260 171 289 151z m344 -79 c0 -10 -32 -43 -42 -43 -12 0 -10 24 4
38 13 13 38 16 38 5z m-670 -12 c0 -17 -71 -54 -81 -44 -7 7 1 17 23 31 35 23
58 28 58 13z m-216 -124 c-3 -8 -20 -21 -39 -30 -30 -14 -35 -14 -35 -2 0 14
44 44 67 45 7 0 10 -6 7 -13z m744 -9 c-3 -7 -20 -23 -39 -36 -42 -29 -54 -9
-15 25 29 25 60 31 54 11z m-938 -97 c0 -12 -42 -39 -74 -47 -38 -9 -34 19 7
39 36 18 67 22 67 8z m79 -70 c18 -12 82 -165 88 -212 5 -34 2 -38 -43 -67
-57 -38 -439 -228 -474 -236 -36 -9 -48 4 -65 66 -19 73 -36 211 -27 220 18
17 469 237 487 238 11 0 26 -4 34 -9z m639 -3 c-6 -17 -55 -44 -64 -35 -11 11
26 47 48 47 11 0 18 -5 16 -12z m-914 -26 c6 -10 -44 -49 -69 -54 -33 -6 -25
17 13 38 43 25 49 27 56 16z m-204 -111 c0 -13 -21 -27 -57 -39 -26 -9 -33 -8
-33 2 0 7 15 20 33 29 36 18 57 21 57 8z m860 -40 c0 -8 -60 -41 -74 -41 -19
0 -1 29 27 42 31 15 47 15 47 -1z m-1050 -49 c0 -12 -51 -34 -59 -27 -7 8 28
35 46 35 7 0 13 -4 13 -8z m-142 -74 c-5 -15 -70 -48 -80 -41 -15 9 -8 23 20
37 33 19 65 20 60 4z m942 -21 c0 -7 -16 -21 -35 -30 -68 -32 -90 -15 -27 21
43 25 62 28 62 9z m-846 -30 c18 -13 31 -80 43 -229 l6 -77 -54 -25 c-91 -43
-437 -176 -457 -176 -36 0 -49 31 -62 151 -7 64 -10 127 -7 141 6 21 25 34 99
66 100 44 392 159 409 161 3 1 13 -5 23 -12z m-269 -16 c8 -13 -35 -41 -62
-41 -33 0 -28 19 10 35 39 17 44 18 52 6z m-165 -64 c0 -17 -42 -37 -75 -37
-35 0 -31 17 8 34 41 19 67 19 67 3z m1038 -9 c-7 -20 -78 -52 -90 -40 -7 7 1
16 28 31 44 23 67 26 62 9z m-218 -108 c0 -13 -78 -52 -90 -45 -18 11 -10 26
23 40 38 17 67 19 67 5z m-206 -89 c8 -13 -16 -30 -52 -37 -43 -9 -42 12 1 30
39 18 44 18 51 7z m-184 -104 c0 -19 -50 -41 -63 -28 -6 6 1 15 19 25 36 19
44 20 44 3z m-170 -77 c0 -16 -60 -41 -88 -38 -26 4 -25 5 18 26 49 24 70 27
70 12z m-240 -110 c0 -16 -46 -34 -67 -26 -16 7 -16 9 7 21 30 17 60 19 60 5z"/>
<path d="M4781 5285 c-37 -43 -40 -62 -7 -40 22 15 56 57 56 70 0 14 -21 1
-49 -30z"/>
<path d="M2195 4944 c-171 -43 -751 -179 -835 -195 -54 -11 -283 -62 -395 -89
-44 -10 -107 -24 -140 -30 -130 -25 -262 -63 -320 -92 -96 -49 -173 -137 -244
-282 -79 -160 -81 -164 -96 -286 -22 -169 -24 -251 -31 -950 -3 -366 -8 -668
-10 -672 -9 -15 17 -289 35 -358 51 -206 133 -339 241 -392 30 -15 123 -42
205 -62 83 -19 236 -55 340 -79 105 -25 262 -62 350 -82 88 -20 187 -43 220
-51 33 -7 110 -22 170 -33 183 -32 393 -71 521 -97 190 -38 228 -32 294 43 88
99 110 212 110 560 0 114 7 413 15 663 8 250 19 653 24 895 6 242 15 595 21
785 14 409 3 661 -29 714 -24 39 -65 76 -115 106 -63 38 -132 35 -331 -16z
m-390 -991 c69 -25 159 -114 175 -173 13 -48 8 -103 -11 -126 -6 -8 -33 -25
-58 -38 -26 -13 -83 -52 -128 -87 -44 -35 -122 -95 -173 -134 -51 -38 -104
-79 -117 -90 l-25 -21 16 -56 c17 -58 25 -171 16 -248 l-5 -45 80 -41 c254
-128 380 -196 387 -207 20 -31 2 -116 -36 -172 -60 -87 -127 -135 -190 -135
-30 0 -44 10 -109 78 -41 42 -112 120 -157 172 -46 52 -87 98 -93 101 -5 4
-30 -3 -56 -14 -30 -13 -75 -22 -128 -25 l-83 -4 -34 -62 c-33 -60 -130 -244
-188 -358 -16 -31 -36 -59 -46 -62 -30 -10 -128 12 -183 40 -60 32 -133 99
-144 133 -5 16 0 32 17 56 20 28 206 249 298 352 41 46 43 64 20 134 -11 35
-23 87 -27 116 -3 29 -11 57 -17 62 -6 4 -42 21 -81 36 -38 15 -90 38 -115 50
-25 12 -61 26 -80 30 -19 4 -51 16 -72 27 -31 16 -38 25 -38 50 0 36 44 149
77 198 97 145 92 142 143 104 21 -16 82 -63 135 -104 146 -113 137 -110 178
-73 81 71 227 96 321 55 27 -12 52 -22 57 -22 5 0 18 17 29 38 20 35 44 74
118 194 91 147 112 185 112 203 2 72 107 105 215 68z"/>
<path d="M1650 3898 c-25 -41 -25 -43 2 -87 34 -57 57 -79 124 -116 72 -40
101 -43 138 -14 31 24 33 46 6 103 -34 77 -134 146 -210 146 -35 0 -43 -4 -60
-32z"/>
<path d="M1534 3698 c-31 -51 -71 -115 -88 -143 -17 -27 -49 -77 -72 -111
l-41 -62 26 -46 c28 -50 39 -55 62 -28 9 9 78 64 154 122 76 58 160 123 188
144 l50 39 -51 23 c-53 23 -152 115 -152 141 0 30 -21 8 -76 -79z"/>
<path d="M574 3532 c-51 -76 -82 -134 -99 -186 -29 -84 -20 -91 220 -170 61
-20 113 -36 117 -36 4 0 11 24 17 53 6 28 22 75 35 104 l24 51 -80 74 c-86 77
-186 158 -197 158 -3 0 -20 -21 -37 -48z"/>
<path d="M1043 3414 c-46 -17 -107 -73 -122 -113 -38 -103 -45 -141 -44 -221
4 -287 233 -426 366 -224 47 72 61 138 55 266 -4 93 -8 110 -37 163 -41 77
-48 86 -96 118 -45 30 -62 32 -122 11z"/>
<path d="M1236 3409 c10 -11 27 -25 36 -30 14 -8 18 -6 18 10 0 12 -11 23 -31
30 -43 15 -45 14 -23 -10z"/>
<path d="M1310 3313 c0 -5 4 -13 9 -18 20 -20 42 -133 42 -217 0 -66 -6 -105
-25 -160 -13 -40 -23 -74 -21 -76 2 -2 16 18 31 45 53 94 54 95 79 89 21 -5
24 -2 30 42 6 47 -7 149 -25 197 -6 17 -15 22 -28 18 -14 -3 -25 5 -41 30 -23
38 -51 65 -51 50z"/>
<path d="M1394 2869 l-36 -59 32 -38 c18 -20 44 -49 59 -64 14 -15 35 -38 46
-50 187 -213 174 -201 181 -171 17 74 105 186 170 215 24 11 33 28 15 28 -6 0
-105 45 -220 99 l-211 99 -36 -59z"/>
<path d="M1251 2778 l-43 -47 33 9 c45 13 89 31 89 37 0 3 -8 15 -17 26 l-18
22 -44 -47z"/>
<path d="M814 2698 c-43 -51 -86 -100 -94 -108 -8 -9 -48 -55 -89 -103 -81
-96 -80 -90 -16 -151 49 -46 184 -96 213 -77 5 3 35 58 67 121 31 63 79 156
106 207 27 51 49 99 49 107 0 9 -11 18 -25 22 -14 3 -44 21 -67 40 -24 19 -48
34 -54 34 -5 0 -46 -42 -90 -92z"/>
<path d="M1850 2659 c-64 -37 -130 -140 -130 -201 0 -32 3 -38 22 -38 78 0
220 195 178 245 -16 20 -28 19 -70 -6z"/>
<path d="M2750 4551 l0 -91 254 0 c140 0 266 -4 280 -10 28 -10 102 16 126 45
29 35 -13 114 -70 129 -14 4 -152 9 -307 13 l-283 6 0 -92z"/>
<path d="M5650 4593 c-14 -2 -70 -16 -125 -30 -55 -14 -138 -34 -185 -45 -95
-21 -274 -83 -374 -128 -73 -32 -149 -82 -247 -162 -36 -29 -108 -87 -158
-128 -51 -41 -161 -140 -244 -219 -83 -79 -169 -155 -192 -169 -22 -15 -71
-50 -110 -78 -50 -37 -95 -60 -155 -79 -98 -31 -179 -34 -545 -21 -230 9 -215
11 -480 -62 l-100 -27 -7 -40 c-12 -67 -10 -535 3 -535 6 0 20 5 32 11 11 7
65 25 120 40 82 24 135 31 320 43 122 8 341 17 487 20 245 4 272 6 365 31 55
14 118 33 140 43 49 20 139 77 180 112 17 15 40 33 51 41 147 99 183 131 458
405 158 159 254 234 371 291 139 68 378 143 456 143 18 0 32 6 36 17 4 9 1 82
-6 162 -7 80 -15 178 -17 216 -11 156 -10 150 -30 151 -10 1 -30 0 -44 -3z
m38 -55 c-5 -15 -68 -24 -68 -9 0 12 18 19 48 20 15 1 22 -4 20 -11z m-178
-43 c0 -8 -16 -19 -37 -24 -53 -15 -65 -14 -61 6 5 28 98 46 98 18z m-200 -38
c0 -19 -44 -37 -91 -37 -54 0 -47 20 12 35 61 17 79 17 79 2z m366 -42 c10
-14 14 -55 14 -151 0 -118 -2 -133 -17 -138 -21 -6 -144 -22 -231 -31 -34 -3
-96 -15 -138 -26 -42 -11 -79 -17 -82 -14 -33 32 -66 255 -41 271 28 18 132
51 314 100 70 19 164 13 181 -11z m-656 -62 c0 -13 -60 -43 -86 -43 -34 0 -30
17 9 34 35 16 77 20 77 9z m-250 -145 c0 -14 -71 -68 -89 -68 -21 0 -11 19 26
49 39 33 63 39 63 19z m188 -95 c27 -38 60 -79 72 -93 12 -14 33 -44 47 -67
31 -54 22 -73 -55 -113 -87 -46 -169 -107 -235 -177 -56 -58 -87 -77 -87 -54
0 6 -14 25 -31 43 -17 18 -51 60 -75 92 -25 32 -65 77 -89 98 -25 22 -45 46
-45 53 0 41 364 284 426 285 15 0 37 -21 72 -67z m772 -23 c0 -5 -9 -10 -20
-10 -11 0 -20 5 -20 10 0 6 9 10 20 10 11 0 20 -4 20 -10z m-150 -20 c0 -12
-33 -26 -85 -36 -30 -5 -37 -4 -33 7 8 26 118 52 118 29z m-1031 -37 c-1 -16
-69 -64 -80 -57 -8 5 -1 16 22 35 33 27 60 37 58 22z m796 -52 c0 -20 -84 -46
-99 -31 -8 9 -8 14 0 17 6 2 20 10 30 18 23 17 69 14 69 -4z m-215 -119 c0
-12 -100 -65 -107 -58 -10 9 35 47 65 56 37 11 42 11 42 2z m-780 -9 c0 -10
-62 -73 -72 -73 -18 0 -6 30 23 54 30 26 49 33 49 19z m-160 -156 c0 -12 -74
-64 -87 -60 -21 5 -9 24 29 47 49 29 58 31 58 13z m127 -35 c38 -47 98 -145
143 -234 l34 -68 -30 -31 c-28 -30 -75 -61 -188 -122 -29 -16 -98 -39 -161
-52 -60 -13 -154 -36 -208 -50 -68 -17 -103 -22 -116 -16 -22 12 -64 230 -59
306 l3 49 70 17 c164 39 294 102 410 198 27 22 55 41 61 41 6 0 24 -17 41 -38z
m508 -42 c6 -10 -35 -54 -67 -71 -35 -19 -31 14 5 48 38 35 52 40 62 23z
m-895 -80 c0 -10 -91 -40 -122 -40 -28 0 -21 19 10 25 15 3 38 10 52 14 35 12
60 13 60 1z m-741 -46 c52 -11 39 -34 -19 -34 -35 0 -50 4 -50 13 0 27 15 32
69 21z m361 -24 c11 -7 12 -12 3 -21 -15 -15 -94 0 -101 19 -5 15 75 17 98 2z
m-632 -22 c-5 -13 -94 -31 -115 -23 -21 7 -15 23 10 28 52 10 109 7 105 -5z
m585 -48 c34 -13 57 -27 57 -36 0 -28 -78 -262 -90 -269 -4 -2 -103 -6 -221
-8 -188 -4 -225 -8 -304 -29 -168 -46 -193 -27 -181 143 8 124 22 162 67 179
19 6 106 16 194 21 88 5 187 13 220 18 86 14 191 6 258 -19z m1107 -20 c0 -10
-69 -60 -82 -60 -21 0 -4 29 30 48 41 24 52 27 52 12z m-332 -232 c-8 -24
-108 -60 -108 -39 0 10 74 49 98 50 8 1 12 -5 10 -11z m-298 -78 c27 -17 -4
-31 -85 -37 -64 -5 -77 -4 -73 8 3 8 31 19 69 25 35 6 66 12 69 13 3 0 12 -4
20 -9z m-745 -39 c3 -5 -4 -12 -15 -16 -26 -8 -100 4 -100 16 0 12 107 12 115
0z m345 0 c0 -12 -26 -21 -60 -21 -37 0 -61 10 -54 21 7 12 114 12 114 0z
m-710 -60 c0 -13 -83 -32 -94 -21 -9 9 -1 14 39 23 35 8 55 7 55 -2z"/>
<path d="M2745 4407 c-2 -7 -6 -47 -9 -91 -5 -72 -4 -78 12 -71 9 4 48 13 86
21 38 8 95 26 125 40 31 14 70 32 86 39 17 8 57 21 90 31 33 9 66 18 74 21 32
9 -6 11 -227 17 -178 4 -234 2 -237 -7z"/>
<path d="M4505 4273 c-38 -30 -80 -59 -93 -64 -13 -5 -56 -29 -95 -53 -40 -23
-109 -62 -154 -85 -46 -24 -86 -47 -89 -52 -10 -18 5 -59 20 -53 8 3 17 1 21
-5 9 -16 -4 -51 -20 -51 -10 0 -12 -10 -8 -37 3 -21 7 -40 9 -42 2 -2 59 53
126 121 68 69 151 149 186 178 68 56 79 80 15 33 -63 -46 -213 -176 -213 -185
0 -4 -9 -8 -20 -8 -31 0 -29 74 3 93 12 8 65 39 117 70 52 31 108 65 124 74
21 14 30 15 33 6 8 -22 26 -14 76 32 44 41 57 68 40 78 -5 2 -39 -20 -78 -50z
m75 27 c0 -5 -4 -10 -10 -10 -5 0 -10 5 -10 10 0 6 5 10 10 10 6 0 10 -4 10
-10z"/>
<path d="M3935 3949 c-69 -40 -105 -56 -220 -98 l-100 -36 -3 -94 -3 -94 63 7
c133 15 194 35 265 87 37 27 71 49 75 49 7 0 1 143 -8 188 -6 28 -8 27 -69 -9z"/>
<path d="M3385 3717 c-33 -18 -40 -28 -40 -52 0 -29 2 -30 51 -33 l51 -3 -1
52 c-1 29 -5 54 -11 55 -5 2 -28 -7 -50 -19z"/>
<path d="M3215 3650 c-17 -7 -15 -9 13 -9 17 -1 32 4 32 9 0 12 -17 12 -45 0z"/>
<path d="M4732 3344 c-24 -18 -49 -39 -56 -46 -7 -7 -39 -31 -70 -53 -31 -22
-101 -73 -154 -112 -53 -40 -124 -87 -157 -104 -33 -18 -62 -33 -64 -35 -2 -2
4 -20 14 -41 38 -80 104 -138 89 -78 -5 19 -2 25 10 25 16 0 20 -11 16 -39 -6
-45 410 68 510 139 25 18 28 24 23 63 -10 75 -95 318 -111 316 -4 0 -26 -16
-50 -35z m53 -61 c4 -17 2 -23 -8 -23 -17 0 -27 21 -27 53 0 19 2 19 14 7 8
-8 17 -25 21 -37z m-52 -101 c31 -65 66 -166 67 -194 0 -3 -33 -18 -72 -32
-40 -14 -99 -34 -131 -46 -32 -11 -62 -18 -67 -15 -17 10 -77 109 -91 148 -12
34 -11 39 8 59 32 32 216 156 233 157 9 1 29 -29 53 -77z m113 -76 c7 -30 2
-56 -11 -59 -5 -1 -11 17 -13 41 -3 45 13 58 24 18z m-526 -121 c0 -28 -15
-34 -24 -9 -10 25 -7 34 9 34 9 0 15 -9 15 -25z"/>
<path d="M5793 3332 c-132 -69 -186 -100 -288 -165 -60 -39 -133 -80 -160 -93
-28 -12 -136 -64 -240 -116 -401 -198 -567 -245 -875 -247 -221 -2 -583 45
-762 98 -132 40 -446 54 -573 27 -129 -29 -159 -41 -175 -72 -11 -22 -16 -94
-22 -299 -5 -148 -15 -314 -23 -368 -16 -105 -13 -127 13 -104 26 22 263 154
333 186 80 36 198 58 357 67 145 8 318 -11 512 -56 283 -67 367 -82 508 -89
239 -13 332 10 649 160 35 16 65 29 67 29 9 0 254 149 356 216 58 38 146 92
195 119 50 26 124 71 165 100 41 28 96 63 122 78 26 15 49 31 52 36 3 4 -8 57
-24 117 -16 60 -46 175 -66 257 -29 112 -41 147 -53 146 -9 0 -39 -12 -68 -27z
m-23 -72 c0 -14 -40 -37 -79 -45 -42 -9 -34 7 17 35 41 21 62 25 62 10z m-230
-130 c0 -13 -78 -52 -97 -48 -12 2 -4 11 23 30 40 27 74 36 74 18z m252 -66
c23 -41 54 -95 67 -118 15 -25 22 -50 18 -60 -4 -9 -33 -28 -64 -42 -32 -14
-123 -57 -202 -96 -107 -53 -148 -69 -159 -62 -24 15 -130 175 -138 206 -5 23
0 33 25 57 17 15 45 35 63 44 18 9 94 45 168 81 74 36 145 65 157 66 16 0 31
-18 65 -76z m-482 -57 c0 -15 -86 -64 -96 -54 -10 10 17 38 51 53 38 17 45 17
45 1z m-280 -141 c0 -12 -66 -46 -90 -46 -24 0 -6 27 28 42 47 20 62 22 62 4z
m950 1 c0 -18 -77 -49 -86 -36 -7 12 -7 12 31 32 37 20 55 21 55 4z m-2755
-71 c69 -24 57 -39 -26 -31 -41 4 -76 9 -78 11 -2 2 2 10 9 19 15 19 43 19 95
1z m-317 -43 c-2 -13 -18 -20 -56 -26 -30 -5 -56 -6 -59 -3 -11 10 18 35 45
39 62 9 74 8 70 -10z m1848 6 c10 -16 -6 -26 -55 -34 -34 -6 -42 -4 -39 6 10
29 80 50 94 28z m1014 -7 c0 -22 -68 -58 -82 -44 -6 6 4 20 28 36 46 31 54 32
54 8z m-2185 -14 c55 -15 54 -34 -3 -31 -43 2 -82 17 -82 33 0 13 30 12 85 -2z
m1511 -21 c6 -6 19 -69 28 -138 19 -143 14 -175 -31 -185 -15 -3 -59 -14 -98
-24 -38 -10 -90 -21 -115 -25 -25 -4 -74 -18 -110 -31 -98 -34 -227 -74 -243
-74 -8 0 -21 8 -29 18 -17 20 -47 155 -55 252 -7 83 -15 77 174 124 76 19 199
51 273 70 134 36 183 39 206 13z m-1812 -19 c15 -8 17 -18 12 -66 -13 -118
-28 -218 -35 -232 -6 -10 -31 -17 -82 -21 -105 -9 -210 -35 -316 -80 -107 -45
-118 -47 -134 -17 -13 24 -25 232 -16 270 7 27 105 76 245 122 127 42 270 53
326 24z m605 1 c43 -15 39 -29 -8 -29 -49 0 -71 8 -71 26 0 17 35 18 79 3z
m596 -9 c8 -12 -36 -30 -76 -30 -35 0 -40 26 -6 33 42 8 76 7 82 -3z m-267
-17 c3 -9 -12 -13 -52 -13 -56 0 -84 15 -44 23 40 8 91 2 96 -10z m-438 -28
c69 -8 183 -19 254 -24 163 -12 166 -15 127 -102 -16 -35 -34 -82 -41 -104
-23 -78 -21 -77 -166 -65 -70 5 -169 17 -219 26 -49 9 -111 13 -137 10 -71 -8
-118 3 -118 26 0 17 43 200 55 236 6 16 89 15 245 -3z m1782 -20 c2 -17 -60
-47 -89 -43 -27 3 -27 4 17 30 46 27 70 31 72 13z m-232 -154 c0 -11 -119 -66
-127 -58 -11 12 29 45 72 60 39 14 55 14 55 -2z m-1772 -141 c17 -11 32 -23
32 -26 0 -4 -27 -4 -61 -2 -55 4 -78 16 -79 41 0 15 76 6 108 -13z m-325 -6
c28 -9 19 -21 -20 -28 -67 -11 -103 -7 -103 9 0 29 59 38 123 19z m662 -35
c46 -12 66 -35 38 -46 -17 -7 -102 13 -117 27 -11 11 1 30 20 30 8 0 35 -5 59
-11z m1075 2 c0 -12 -97 -51 -126 -51 -47 0 -19 31 45 51 36 10 81 11 81 0z
m-697 -84 c55 -15 40 -32 -28 -30 -57 2 -75 12 -75 41 0 14 25 12 103 -11z
m-1393 -2 c10 -12 6 -18 -22 -35 -18 -11 -45 -20 -60 -20 -43 0 -34 28 15 50
51 24 52 24 67 5z m1715 -20 c0 -5 -21 -11 -47 -13 -45 -3 -64 9 -35 22 20 8
82 2 82 -9z"/>
<path d="M4090 2930 c-30 -9 -93 -20 -140 -24 -77 -6 -169 -22 -145 -25 6 -1
53 -8 105 -16 99 -15 290 -20 290 -8 0 19 -36 93 -45 92 -5 -1 -35 -9 -65 -19z"/>
<path d="M3345 2151 c-26 -5 -30 -11 -33 -46 -17 -232 -22 -252 -84 -298 -24
-18 -48 -20 -284 -24 -188 -3 -260 -7 -266 -16 -4 -7 -8 -57 -8 -111 l0 -99
249 6 c233 6 255 8 328 33 43 14 88 35 101 47 42 39 70 115 78 212 9 105 12
262 7 288 -5 18 -31 20 -88 8z"/>
<path d="M4980 2093 c-168 -73 -302 -112 -387 -113 -52 0 -52 2 -17 -140 53
-218 52 -405 -2 -676 -13 -67 -24 -133 -24 -146 l0 -25 258 5 c141 2 258 6
260 7 6 5 21 193 32 385 6 102 13 210 16 240 4 40 3 51 -5 40 -6 -8 -11 -27
-11 -42 0 -29 -16 -46 -30 -32 -4 5 -5 29 -1 54 5 36 10 46 27 48 15 2 24 12
27 30 7 34 -4 412 -12 416 -3 1 -62 -22 -131 -51z m45 -53 c15 -16 19 -41 22
-136 2 -63 4 -118 4 -122 4 -28 -4 -63 -18 -81 -14 -17 -32 -23 -78 -26 -33
-3 -86 -10 -117 -16 -96 -19 -138 3 -138 74 0 23 -7 82 -15 130 -9 48 -13 92
-10 97 3 6 18 10 33 10 15 0 86 20 157 44 72 25 133 45 136 45 3 1 14 -8 24
-19z m63 -60 c-4 -63 -28 -65 -28 -2 0 27 3 52 7 56 14 14 24 -13 21 -54z
m-458 -96 c13 -34 13 -44 -3 -44 -13 0 -39 55 -29 64 11 12 23 5 32 -20z m28
-251 c-3 -55 -21 -65 -26 -15 -4 39 3 62 18 62 7 0 10 -18 8 -47z m324 -128
c15 -4 29 -13 32 -20 7 -18 -12 -302 -23 -348 -18 -74 -30 -80 -167 -75 -159
5 -158 4 -150 123 3 49 11 137 18 194 15 140 16 141 155 137 59 -2 120 -7 135
-11z m-327 -109 c-4 -20 -11 -36 -16 -36 -10 0 -12 73 -2 84 14 14 24 -13 18
-48z m420 14 c9 -14 -6 -81 -16 -74 -12 7 -12 84 0 84 6 0 13 -4 16 -10z
m-449 -232 c-3 -13 -6 -35 -6 -50 0 -19 -5 -28 -16 -28 -14 0 -15 7 -10 42 8
47 13 58 28 58 6 0 8 -10 4 -22z m432 -74 c-2 -18 -9 -29 -18 -29 -11 0 -14 8
-11 30 1 17 5 34 8 38 10 16 25 -11 21 -39z"/>
<path d="M3119 2111 c-31 -10 -112 -45 -180 -78 -68 -33 -142 -66 -164 -73
-22 -7 -44 -16 -49 -21 -6 -5 -20 -9 -33 -9 -19 0 -23 -5 -23 -29 l0 -28 108
-7 c131 -8 373 -9 394 -1 27 10 36 49 39 156 3 121 4 120 -92 90z"/>
</g>
</svg>
